<svg height="720" width="1280" xmlns="http://www.w3.org/2000/svg">
  <path d="m0 0h80v80h-80z" fill="#da2e9c"/>
  <path d="m80 0h80v80h-80z" fill="#759a73"/>
  <path d="m160 0h80v80h-80z" fill="#999fce"/>
  <path d="m240 0h80v80h-80z" fill="#fdd89d"/>
  <path d="m320 0h80v80h-80z" fill="#ae6441"/>
  <path d="m400 0h80v80h-80z" fill="#2489b7"/>
  <path d="m480 0h80v80h-80z" fill="#d99c8f"/>
  <path d="m560 0h80v80h-80z" fill="#21846b"/>
  <path d="m640 0h80v80h-80z" fill="#075876"/>
  <path d="m720 0h80v80h-80z" fill="#3bc20a"/>
  <path d="m800 0h80v80h-80z" fill="#41aa02"/>
  <path d="m880 0h80v80h-80z" fill="#36b674"/>
  <path d="m960 0h80v80h-80z" fill="#6c7581"/>
  <path d="m1040 0h80v80h-80z" fill="#ba5810"/>
  <path d="m1120 0h80v80h-80z" fill="#1a1a6f"/>
  <path d="m1200 0h80v80h-80z" fill="#d15182"/>
  <path d="m0 80h80v80h-80z" fill="#d4b71c"/>
  <path d="m80 80h80v80h-80z" fill="#29113c"/>
  <path d="m160 80h80v80h-80z" fill="#bf62d3"/>
  <path d="m240 80h80v80h-80z" fill="#7cfee2"/>
  <path d="m320 80h80v80h-80z" fill="#4fe165"/>
  <path d="m400 80h80v80h-80z" fill="#27f0a8"/>
  <path d="m480 80h80v80h-80z" fill="#85f012"/>
  <path d="m560 80h80v80h-80z" fill="#f37d37"/>
  <path d="m640 80h80v80h-80z" fill="#866fd1"/>
  <path d="m720 80h80v80h-80z" fill="#500cc0"/>
  <path d="m800 80h80v80h-80z" fill="#652f46"/>
  <path d="m880 80h80v80h-80z" fill="#ddb06f"/>
  <path d="m960 80h80v80h-80z" fill="#15be7b"/>
  <path d="m1040 80h80v80h-80z" fill="#141904"/>
  <path d="m1120 80h80v80h-80z" fill="#71f7f9"/>
  <path d="m1200 80h80v80h-80z" fill="#360c10"/>
  <path d="m0 160h80v80h-80z" fill="#74ef36"/>
  <path d="m80 160h80v80h-80z" fill="#d643b3"/>
  <path d="m160 160h80v80h-80z" fill="#aca21f"/>
  <path d="m240 160h80v80h-80z" fill="#7c780c"/>
  <path d="m320 160h80v80h-80z" fill="#a122d8"/>
  <path d="m400 160h80v80h-80z" fill="#d6de83"/>
  <path d="m480 160h80v80h-80z" fill="#642337"/>
  <path d="m560 160h80v80h-80z" fill="#6a754d"/>
  <path d="m640 160h80v80h-80z" fill="#b7c836"/>
  <path d="m720 160h80v80h-80z" fill="#44cddb"/>
  <path d="m800 160h80v80h-80z" fill="#e2f34b"/>
  <path d="m880 160h80v80h-80z" fill="#dbfda9"/>
  <path d="m960 160h80v80h-80z" fill="#800ac4"/>
  <path d="m1040 160h80v80h-80z" fill="#f8bcc3"/>
  <path d="m1120 160h80v80h-80z" fill="#2db137"/>
  <path d="m1200 160h80v80h-80z" fill="#0cbe6b"/>
  <path d="m0 240h80v80h-80z" fill="#125e98"/>
  <path d="m80 240h80v80h-80z" fill="#670802"/>
  <path d="m160 240h80v80h-80z" fill="#cd5292"/>
  <path d="m240 240h80v80h-80z" fill="#e49260"/>
  <path d="m320 240h80v80h-80z" fill="#5ef6be"/>
  <path d="m400 240h80v80h-80z" fill="#93a9e2"/>
  <path d="m480 240h80v80h-80z" fill="#b9d137"/>
  <path d="m560 240h80v80h-80z" fill="#e093ec"/>
  <path d="m640 240h80v80h-80z" fill="#c2b8aa"/>
  <path d="m720 240h80v80h-80z" fill="#285dec"/>
  <path d="m800 240h80v80h-80z" fill="#eae2cd"/>
  <path d="m880 240h80v80h-80z" fill="#84a40f"/>
  <path d="m960 240h80v80h-80z" fill="#ba7ae4"/>
  <path d="m1040 240h80v80h-80z" fill="#55c9a5"/>
  <path d="m1120 240h80v80h-80z" fill="#ec84ad"/>
  <path d="m1200 240h80v80h-80z" fill="#2de77b"/>
  <path d="m0 320h80v80h-80z" fill="#e14514"/>
  <path d="m80 320h80v80h-80z" fill="#b80615"/>
  <path d="m160 320h80v80h-80z" fill="#103070"/>
  <path d="m240 320h80v80h-80z" fill="#d93e9b"/>
  <path d="m320 320h80v80h-80z" fill="#3f551a"/>
  <path d="m400 320h80v80h-80z" fill="#57be4a"/>
  <path d="m480 320h80v80h-80z" fill="#4dfe42"/>
  <path d="m560 320h80v80h-80z" fill="#540328"/>
  <path d="m640 320h80v80h-80z" fill="#29a591"/>
  <path d="m720 320h80v80h-80z" fill="#9c6488"/>
  <path d="m800 320h80v80h-80z" fill="#be224b"/>
  <path d="m880 320h80v80h-80z" fill="#723e90"/>
  <path d="m960 320h80v80h-80z" fill="#b30938"/>
  <path d="m1040 320h80v80h-80z" fill="#9aab85"/>
  <path d="m1120 320h80v80h-80z" fill="#342584"/>
  <path d="m1200 320h80v80h-80z" fill="#852d45"/>
  <path d="m0 400h80v80h-80z" fill="#d9a46e"/>
  <path d="m80 400h80v80h-80z" fill="#883d34"/>
  <path d="m160 400h80v80h-80z" fill="#cf326e"/>
  <path d="m240 400h80v80h-80z" fill="#94d610"/>
  <path d="m320 400h80v80h-80z" fill="#464949"/>
  <path d="m400 400h80v80h-80z" fill="#37e924"/>
  <path d="m480 400h80v80h-80z" fill="#4ff5b7"/>
  <path d="m560 400h80v80h-80z" fill="#a3eb05"/>
  <path d="m640 400h80v80h-80z" fill="#b12d53"/>
  <path d="m720 400h80v80h-80z" fill="#b7adc1"/>
  <path d="m800 400h80v80h-80z" fill="#873bef"/>
  <path d="m880 400h80v80h-80z" fill="#12a55b"/>
  <path d="m960 400h80v80h-80z" fill="#431ad1"/>
  <path d="m1040 400h80v80h-80z" fill="#1e0bd9"/>
  <path d="m1120 400h80v80h-80z" fill="#f7991b"/>
  <path d="m1200 400h80v80h-80z" fill="#dbab18"/>
  <path d="m0 480h80v80h-80z" fill="#7677be"/>
  <path d="m80 480h80v80h-80z" fill="#a77f5e"/>
  <path d="m160 480h80v80h-80z" fill="#dc4694"/>
  <path d="m240 480h80v80h-80z" fill="#341a8a"/>
  <path d="m320 480h80v80h-80z" fill="#e2e516"/>
  <path d="m400 480h80v80h-80z" fill="#977baf"/>
  <path d="m480 480h80v80h-80z" fill="#dca040"/>
  <path d="m560 480h80v80h-80z" fill="#9d1fce"/>
  <path d="m640 480h80v80h-80z" fill="#129ad1"/>
  <path d="m720 480h80v80h-80z" fill="#322f7a"/>
  <path d="m800 480h80v80h-80z" fill="#7b9b99"/>
  <path d="m880 480h80v80h-80z" fill="#224a02"/>
  <path d="m960 480h80v80h-80z" fill="#d2594e"/>
  <path d="m1040 480h80v80h-80z" fill="#5ef3dc"/>
  <path d="m1120 480h80v80h-80z" fill="#d9b1d2"/>
  <path d="m1200 480h80v80h-80z" fill="#b457a5"/>
  <path d="m0 560h80v80h-80z" fill="#0710af"/>
  <path d="m80 560h80v80h-80z" fill="#d755c0"/>
  <path d="m160 560h80v80h-80z" fill="#5c6308"/>
  <path d="m240 560h80v80h-80z" fill="#95e7ee"/>
  <path d="m320 560h80v80h-80z" fill="#a151fc"/>
  <path d="m400 560h80v80h-80z" fill="#81a9cb"/>
  <path d="m480 560h80v80h-80z" fill="#edfb20"/>
  <path d="m560 560h80v80h-80z" fill="#057441"/>
  <path d="m640 560h80v80h-80z" fill="#9fa2e0"/>
  <path d="m720 560h80v80h-80z" fill="#213a99"/>
  <path d="m800 560h80v80h-80z" fill="#25d4a4"/>
  <path d="m880 560h80v80h-80z" fill="#169a5a"/>
  <path d="m960 560h80v80h-80z" fill="#ec3d3b"/>
  <path d="m1040 560h80v80h-80z" fill="#8b5dec"/>
  <path d="m1120 560h80v80h-80z" fill="#80896d"/>
  <path d="m1200 560h80v80h-80z" fill="#5bb7a3"/>
  <path d="m0 640h80v80h-80z" fill="#279c97"/>
  <path d="m80 640h80v80h-80z" fill="#37910d"/>
  <path d="m160 640h80v80h-80z" fill="#7ce333"/>
  <path d="m240 640h80v80h-80z" fill="#ba30d9"/>
  <path d="m320 640h80v80h-80z" fill="#d10e72"/>
  <path d="m400 640h80v80h-80z" fill="#dea105"/>
  <path d="m480 640h80v80h-80z" fill="#e5d129"/>
  <path d="m560 640h80v80h-80z" fill="#b2dd79"/>
  <path d="m640 640h80v80h-80z" fill="#22ccef"/>
  <path d="m720 640h80v80h-80z" fill="#d31926"/>
  <path d="m800 640h80v80h-80z" fill="#126830"/>
  <path d="m880 640h80v80h-80z" fill="#8f8733"/>
  <path d="m960 640h80v80h-80z" fill="#ae4eaf"/>
  <path d="m1040 640h80v80h-80z" fill="#4453b1"/>
  <path d="m1120 640h80v80h-80z" fill="#62a2c2"/>
  <path d="m1200 640h80v80h-80z" fill="#ba22f3"/>
</svg>
